<?xml version="1.0" encoding="utf-8"?>
<!-- Generator: Adobe Illustrator 16.0.3, SVG Export Plug-In . SVG Version: 6.00 Build 0)  -->
<!DOCTYPE svg PUBLIC "-//W3C//DTD SVG 1.1//EN" "http://www.w3.org/Graphics/SVG/1.1/DTD/svg11.dtd">
<svg version="1.1" xmlns="http://www.w3.org/2000/svg" xmlns:xlink="http://www.w3.org/1999/xlink" x="0px" y="0px" width="208px"
	 height="56px" viewBox="0 0 208 56" enable-background="new 0 0 208 56" xml:space="preserve">
<g id="Layer_2">
	<rect fill="#F6F6F8" width="208" height="56"/>
</g>
<g id="Layer_1">
	<g>
		<path fill="#787D83" d="M36.05,48.88L30.72,35.7h-0.08c0.05,0.81,0.08,1.63,0.08,2.48v10.7h-0.96V34.61h1.54l5.06,12.56h0.06
			l5.06-12.56h1.5v14.28h-1.01V38.06c0-0.75,0.04-1.54,0.12-2.34h-0.08l-5.34,13.16H36.05z"/>
		<path fill="#787D83" d="M52.72,48.88l-0.24-1.68H52.4c-0.53,0.68-1.08,1.17-1.65,1.45s-1.23,0.42-2,0.42
			c-1.04,0-1.85-0.27-2.43-0.8c-0.58-0.53-0.87-1.27-0.87-2.22c0-1.04,0.43-1.84,1.29-2.41c0.86-0.57,2.11-0.88,3.75-0.91l2.02-0.06
			v-0.7c0-1.01-0.21-1.77-0.62-2.29c-0.41-0.51-1.07-0.77-1.98-0.77c-0.98,0-2,0.27-3.06,0.82L46.5,38.9
			c1.17-0.55,2.32-0.82,3.46-0.82c1.17,0,2.04,0.3,2.61,0.91s0.86,1.55,0.86,2.83v7.06H52.72z M48.82,48.2
			c1.13,0,2.03-0.32,2.68-0.97c0.65-0.65,0.98-1.55,0.98-2.7v-1.04l-1.86,0.08c-1.49,0.07-2.55,0.3-3.19,0.7
			c-0.63,0.39-0.95,1.01-0.95,1.84c0,0.66,0.2,1.18,0.61,1.55C47.5,48.02,48.08,48.2,48.82,48.2z"/>
		<path fill="#787D83" d="M63.78,48.88V42c0-1.07-0.22-1.84-0.67-2.33c-0.45-0.48-1.15-0.73-2.09-0.73c-1.27,0-2.2,0.32-2.79,0.96
			c-0.59,0.64-0.88,1.68-0.88,3.12v5.86h-0.97V38.27h0.82l0.19,1.46h0.06c0.69-1.11,1.92-1.66,3.68-1.66c2.41,0,3.61,1.29,3.61,3.88
			v6.94H63.78z"/>
		<path fill="#787D83" d="M74.12,48.88l-0.24-1.68h-0.08c-0.53,0.68-1.08,1.17-1.65,1.45s-1.23,0.42-2,0.42
			c-1.04,0-1.85-0.27-2.43-0.8c-0.58-0.53-0.87-1.27-0.87-2.22c0-1.04,0.43-1.84,1.29-2.41c0.86-0.57,2.11-0.88,3.75-0.91l2.02-0.06
			v-0.7c0-1.01-0.21-1.77-0.62-2.29c-0.41-0.51-1.07-0.77-1.98-0.77c-0.98,0-2,0.27-3.06,0.82L67.9,38.9
			c1.17-0.55,2.32-0.82,3.46-0.82c1.17,0,2.04,0.3,2.61,0.91s0.86,1.55,0.86,2.83v7.06H74.12z M70.21,48.2
			c1.13,0,2.03-0.32,2.68-0.97c0.65-0.65,0.98-1.55,0.98-2.7v-1.04l-1.86,0.08c-1.49,0.07-2.55,0.3-3.19,0.7
			c-0.63,0.39-0.95,1.01-0.95,1.84c0,0.66,0.2,1.18,0.61,1.55C68.89,48.02,69.47,48.2,70.21,48.2z"/>
		<path fill="#787D83" d="M86.05,38.27v0.67l-2.2,0.14c0.59,0.73,0.88,1.53,0.88,2.4c0,1.02-0.34,1.85-1.02,2.49
			s-1.59,0.95-2.74,0.95c-0.48,0-0.82-0.02-1.02-0.06c-0.38,0.2-0.68,0.44-0.88,0.71s-0.3,0.56-0.3,0.87c0,0.34,0.13,0.59,0.39,0.74
			s0.69,0.23,1.29,0.23h1.86c1.15,0,2.03,0.23,2.65,0.7c0.61,0.47,0.92,1.15,0.92,2.07c0,1.12-0.45,1.98-1.36,2.59
			s-2.2,0.91-3.88,0.91c-1.33,0-2.37-0.26-3.1-0.77s-1.1-1.23-1.1-2.15c0-0.73,0.23-1.33,0.68-1.82s1.07-0.81,1.84-0.99
			c-0.32-0.14-0.57-0.33-0.77-0.58c-0.19-0.25-0.29-0.54-0.29-0.86c0-0.71,0.45-1.33,1.36-1.88c-0.62-0.25-1.1-0.65-1.45-1.2
			c-0.35-0.54-0.52-1.17-0.52-1.87c0-1.06,0.34-1.91,1.01-2.55c0.67-0.64,1.58-0.96,2.73-0.96c0.7,0,1.24,0.07,1.62,0.21H86.05z
			 M77.45,50.68c0,1.46,1.08,2.19,3.25,2.19c2.79,0,4.18-0.89,4.18-2.67c0-0.64-0.22-1.1-0.65-1.39s-1.14-0.43-2.12-0.43h-1.74
			C78.43,48.39,77.45,49.15,77.45,50.68z M78.26,41.58c0,0.82,0.25,1.46,0.75,1.91c0.5,0.45,1.16,0.68,2,0.68
			c0.89,0,1.56-0.22,2.04-0.67s0.71-1.1,0.71-1.95c0-0.9-0.24-1.58-0.73-2.04c-0.48-0.45-1.16-0.68-2.04-0.68
			c-0.85,0-1.51,0.24-2,0.73C78.51,40.04,78.26,40.71,78.26,41.58z"/>
		<path fill="#787D83" d="M87.59,35.32c0-0.63,0.21-0.94,0.62-0.94c0.2,0,0.36,0.08,0.47,0.24c0.11,0.16,0.17,0.39,0.17,0.69
			c0,0.29-0.06,0.52-0.17,0.69c-0.11,0.17-0.27,0.25-0.47,0.25C87.79,36.27,87.59,35.95,87.59,35.32z M88.69,48.88h-0.97V38.27h0.97
			V48.88z"/>
		<path fill="#787D83" d="M99.15,48.88V42c0-1.07-0.22-1.84-0.67-2.33c-0.45-0.48-1.15-0.73-2.09-0.73c-1.27,0-2.2,0.32-2.79,0.96
			c-0.59,0.64-0.88,1.68-0.88,3.12v5.86h-0.97V38.27h0.82l0.19,1.46h0.06c0.69-1.11,1.92-1.66,3.68-1.66c2.41,0,3.61,1.29,3.61,3.88
			v6.94H99.15z"/>
		<path fill="#787D83" d="M111.33,38.27v0.67l-2.2,0.14c0.59,0.73,0.88,1.53,0.88,2.4c0,1.02-0.34,1.85-1.02,2.49
			s-1.59,0.95-2.74,0.95c-0.48,0-0.82-0.02-1.02-0.06c-0.38,0.2-0.68,0.44-0.88,0.71s-0.3,0.56-0.3,0.87c0,0.34,0.13,0.59,0.39,0.74
			c0.26,0.16,0.69,0.23,1.29,0.23h1.86c1.15,0,2.03,0.23,2.65,0.7c0.61,0.47,0.92,1.15,0.92,2.07c0,1.12-0.45,1.98-1.36,2.59
			s-2.2,0.91-3.88,0.91c-1.33,0-2.37-0.26-3.1-0.77s-1.1-1.23-1.1-2.15c0-0.73,0.23-1.33,0.68-1.82s1.07-0.81,1.84-0.99
			c-0.32-0.14-0.58-0.33-0.77-0.58c-0.19-0.25-0.29-0.54-0.29-0.86c0-0.71,0.45-1.33,1.36-1.88c-0.62-0.25-1.1-0.65-1.45-1.2
			c-0.34-0.54-0.52-1.17-0.52-1.87c0-1.06,0.34-1.91,1.01-2.55c0.67-0.64,1.58-0.96,2.73-0.96c0.7,0,1.24,0.07,1.62,0.21H111.33z
			 M102.73,50.68c0,1.46,1.08,2.19,3.25,2.19c2.79,0,4.18-0.89,4.18-2.67c0-0.64-0.22-1.1-0.65-1.39s-1.14-0.43-2.12-0.43h-1.74
			C103.71,48.39,102.73,49.15,102.73,50.68z M103.54,41.58c0,0.82,0.25,1.46,0.75,1.91c0.5,0.45,1.16,0.68,2,0.68
			c0.89,0,1.56-0.22,2.04-0.67s0.71-1.1,0.71-1.95c0-0.9-0.24-1.58-0.73-2.04c-0.49-0.45-1.16-0.68-2.04-0.68
			c-0.85,0-1.51,0.24-2,0.73C103.79,40.04,103.54,40.71,103.54,41.58z"/>
		<path fill="#787D83" d="M126.54,38.71c0,1.38-0.47,2.44-1.41,3.17c-0.94,0.74-2.27,1.1-3.98,1.1h-2.21v5.9h-1V34.61h3.5
			C124.84,34.61,126.54,35.97,126.54,38.71z M118.94,42.13h1.96c1.61,0,2.77-0.26,3.49-0.8c0.72-0.53,1.07-1.39,1.07-2.58
			c0-1.1-0.34-1.92-1.02-2.45c-0.68-0.53-1.73-0.8-3.14-0.8h-2.36V42.13z"/>
		<path fill="#787D83" d="M135.34,48.88l-0.24-1.68h-0.08c-0.53,0.68-1.08,1.17-1.65,1.45s-1.23,0.42-2,0.42
			c-1.04,0-1.85-0.27-2.43-0.8c-0.58-0.53-0.87-1.27-0.87-2.22c0-1.04,0.43-1.84,1.29-2.41c0.86-0.57,2.11-0.88,3.75-0.91l2.02-0.06
			v-0.7c0-1.01-0.21-1.77-0.62-2.29c-0.41-0.51-1.07-0.77-1.98-0.77c-0.98,0-2,0.27-3.06,0.82l-0.36-0.84
			c1.17-0.55,2.32-0.82,3.46-0.82c1.17,0,2.04,0.3,2.61,0.91s0.86,1.55,0.86,2.83v7.06H135.34z M131.44,48.2
			c1.13,0,2.03-0.32,2.68-0.97c0.65-0.65,0.98-1.55,0.98-2.7v-1.04l-1.86,0.08c-1.49,0.07-2.55,0.3-3.19,0.7
			c-0.63,0.39-0.95,1.01-0.95,1.84c0,0.66,0.2,1.18,0.61,1.55C130.12,48.02,130.69,48.2,131.44,48.2z"/>
		<path fill="#787D83" d="M143.17,38.06c0.45,0,0.93,0.05,1.45,0.14l-0.19,0.93c-0.44-0.11-0.9-0.17-1.38-0.17
			c-0.91,0-1.65,0.38-2.23,1.15c-0.58,0.77-0.87,1.74-0.87,2.91v5.86h-0.97V38.27h0.82l0.1,1.91h0.07c0.44-0.78,0.9-1.33,1.4-1.65
			C141.87,38.22,142.47,38.06,143.17,38.06z"/>
		<path fill="#787D83" d="M149.08,48.22c0.61,0,1.15-0.05,1.6-0.16v0.78c-0.47,0.16-1.01,0.23-1.62,0.23
			c-0.94,0-1.63-0.25-2.08-0.75c-0.45-0.5-0.67-1.29-0.67-2.36v-6.86h-1.57v-0.57l1.57-0.44l0.49-2.4h0.5v2.57h3.12v0.84h-3.12v6.72
			c0,0.81,0.14,1.42,0.43,1.81S148.47,48.22,149.08,48.22z"/>
		<path fill="#787D83" d="M159.88,48.88V42c0-1.07-0.22-1.84-0.67-2.33c-0.45-0.48-1.15-0.73-2.09-0.73c-1.27,0-2.2,0.32-2.79,0.96
			c-0.59,0.64-0.88,1.68-0.88,3.12v5.86h-0.97V38.27h0.82l0.19,1.46h0.06c0.69-1.11,1.92-1.66,3.68-1.66c2.41,0,3.61,1.29,3.61,3.88
			v6.94H159.88z"/>
		<path fill="#787D83" d="M168.06,49.08c-1.54,0-2.75-0.47-3.61-1.43c-0.86-0.95-1.29-2.28-1.29-3.99c0-1.69,0.42-3.05,1.25-4.07
			c0.83-1.02,1.96-1.53,3.37-1.53c1.25,0,2.24,0.44,2.96,1.31c0.72,0.87,1.08,2.06,1.08,3.55v0.78h-7.65
			c0.01,1.46,0.35,2.57,1.02,3.34c0.67,0.77,1.62,1.15,2.87,1.15c0.61,0,1.14-0.04,1.6-0.13c0.46-0.08,1.04-0.27,1.74-0.55v0.88
			c-0.6,0.26-1.15,0.44-1.66,0.53C169.23,49.03,168.67,49.08,168.06,49.08z M167.78,38.92c-1.02,0-1.84,0.34-2.46,1.01
			s-0.98,1.65-1.08,2.92h6.56c0-1.23-0.27-2.19-0.8-2.89S168.72,38.92,167.78,38.92z"/>
		<path fill="#787D83" d="M178.43,38.06c0.45,0,0.93,0.05,1.45,0.14l-0.19,0.93c-0.44-0.11-0.9-0.17-1.38-0.17
			c-0.91,0-1.65,0.38-2.23,1.15c-0.58,0.77-0.87,1.74-0.87,2.91v5.86h-0.97V38.27h0.82l0.1,1.91h0.07c0.44-0.78,0.9-1.33,1.4-1.65
			C177.13,38.22,177.73,38.06,178.43,38.06z"/>
	</g>
	<g>
		<path fill="#CB442A" d="M20.12,26.2V1h8.61c2.8,0,5.43,0.17,7.77,1.89c3.33,2.42,4.2,7.32,4.2,10.68c0,3.33-0.73,7.04-3.05,9.56
			c-2.31,2.59-5.6,3.08-8.93,3.08H20.12z M22.5,24.17h5.71c2.14,0,3.99-0.14,5.92-1.16c3.36-1.71,4.2-6.02,4.2-9.45
			c0-3.68-0.81-7.7-4.34-9.59c-1.51-0.8-3.68-0.94-5.78-0.94H22.5V24.17z"/>
		<path fill="#CB442A" d="M51.66,15.63c0.77-0.07,2.07-0.28,2.77-0.59c0.7-0.32,0.77-1.26,0.77-1.89c0-2.14-1.26-3.68-4.52-3.68
			c-2.91,0-4.9,0.95-5.29,4.1h-2.14c0.31-4.27,3.5-5.99,7.46-5.99c3.68,0,6.58,1.44,6.58,5.64v9.87c0,1.64,0.42,2.03,2.21,1.4v1.65
			c-0.31,0.11-1.05,0.35-1.65,0.35c-0.35,0-0.63-0.04-0.95-0.11c-1.4-0.21-1.65-1.44-1.68-2.7c-1.75,1.96-4.13,3.01-6.76,3.01
			c-3.19,0-6.06-1.72-6.06-5.22c0-3.05,2.1-4.9,6.34-5.46L51.66,15.63z M55.2,16.68c-1.79,0.73-3.61,0.88-5.43,1.02
			c-3.19,0.25-5.11,1.4-5.11,3.85c0,2.21,1.92,3.25,3.92,3.25c3.33,0,6.62-1.61,6.62-5.29V16.68z"/>
		<path fill="#CB442A" d="M59.11,8.07h2.27l5.88,15.54l5.88-15.54h2.28L68.39,26.2h-2.35L59.11,8.07z"/>
		<path fill="#CB442A" d="M77,4.11V1h2.31v3.12H77z M77.1,26.2V8.07h2.1V26.2H77.1z"/>
		<path fill="#CB442A" d="M96.81,1h2.1v25.2h-2.1v-3.19h-0.07c-1.23,2.38-3.99,3.68-6.3,3.68c-5.85,0-8.19-4.17-8.19-9.52
			c0-5.08,2.56-9.59,8.09-9.59c2.56,0,5.15,1.19,6.48,3.4V1z M90.68,9.47c-4.34,0-6.37,3.68-6.2,8.23c0.04,4.55,2.66,7.11,6.2,7.11
			c3.96,0,6.13-3.36,6.13-7.74C96.81,12.97,94.5,9.47,90.68,9.47z"/>
		<path fill="#CB442A" d="M121.45,15.21v-2.03h10.78V26.2h-2.03v-4.31c-1.75,3.01-4.45,4.97-9.42,4.97
			c-6.37,0-11.03-4.45-11.03-13.41c0-7.39,3.71-13.13,11.66-13.13c5.29,0,9.45,2.59,10.54,7.98h-2.45
			c-0.84-3.78-4.17-5.95-7.91-5.95c-6.65,0-9.45,4.9-9.45,12.04c0,5.57,3.36,10.43,9.14,10.43c2.73,0,5.95-1.16,7.6-4.41
			c0.81-1.58,1.05-3.33,1.09-5.22H121.45z"/>
		<path fill="#CB442A" d="M138.11,26.2h-2.1V8.07h2.1v3.4h0.07c1.15-2.91,2.87-3.89,5.92-3.89v2.28c-4.73-0.1-5.99,3.4-5.99,7.46
			V26.2z"/>
		<path fill="#CB442A" d="M146.02,4.11V1h2.31v3.12H146.02z M146.12,26.2V8.07h2.1V26.2H146.12z"/>
		<path fill="#CB442A" d="M152.14,26.2V1h2.1v25.2H152.14z"/>
		<path fill="#CB442A" d="M158.16,26.2V1h2.1v25.2H158.16z"/>
		<path fill="#CB442A" d="M165.16,17.62c-0.04,3.92,2.07,7.18,6.09,7.18c2.73,0,4.87-1.5,5.5-4.17h2.35
			c-1.05,3.43-3.22,6.06-7.84,6.06c-5.81,0-8.33-4.13-8.33-9.49c0-5.29,3.15-9.63,8.33-9.63c4.97,0,8.02,3.54,7.98,10.05H165.16z
			 M176.99,15.87c0-3.54-1.96-6.41-5.74-6.41c-3.71,0-5.67,2.98-6.09,6.41H176.99z"/>
		<path fill="#CB442A" d="M183.78,26.2h-2.1V8.07h2.1v3.4h0.07c1.15-2.91,2.87-3.89,5.92-3.89v2.28c-4.73-0.1-5.99,3.4-5.99,7.46
			V26.2z"/>
	</g>
	<g>
	</g>
	<g>
	</g>
	<g>
	</g>
	<g>
	</g>
	<g>
	</g>
	<g>
	</g>
</g>
</svg>
