<?xml version="1.0" encoding="utf-8"?>
<!-- Generator: Adobe Illustrator 16.0.3, SVG Export Plug-In . SVG Version: 6.00 Build 0)  -->
<!DOCTYPE svg PUBLIC "-//W3C//DTD SVG 1.1//EN" "http://www.w3.org/Graphics/SVG/1.1/DTD/svg11.dtd">
<svg version="1.1" id="Layer_1" xmlns="http://www.w3.org/2000/svg" xmlns:xlink="http://www.w3.org/1999/xlink" x="0px" y="0px"
	 width="253px" height="32px" viewBox="0 0 253 32" enable-background="new 0 0 253 32" xml:space="preserve">
<g>
	<path fill="#CB442A" d="M11.15,13.86h8.1v10.45h-2.7l-0.41-2.43c-1.03,1.19-2.51,2.94-6.05,2.94c-4.67,0-8.91-3.35-8.91-10.15
		c0-5.26,2.92-10.26,9.42-10.26h0.05c5.94,0,8.29,3.86,8.5,6.53h-4.05c0-0.76-1.38-3.19-4.24-3.19c-2.89,0-5.56,2-5.56,6.96
		c0,5.29,2.89,6.67,5.64,6.67c0.89,0,3.86-0.35,4.7-4.27h-4.51V13.86z"/>
	<path fill="#CB442A" d="M34.83,20.1c-1,3.46-3.86,4.59-6.32,4.59c-4.05,0-7.15-1.94-7.15-7.86c0-1.73,0.59-7.26,6.88-7.26
		c2.83,0,6.75,1.35,6.75,7.91v0.67h-9.85c0.11,1.08,0.32,3.51,3.37,3.51c1.05,0,2.13-0.54,2.43-1.57H34.83z M31.1,15.7
		c-0.22-2.32-1.7-3.02-2.92-3.02c-1.78,0-2.73,1.13-2.94,3.02H31.1z"/>
	<path fill="#CB442A" d="M50.49,24.31h-3.78v-8.72c0-1.05-0.05-2.83-2.46-2.83c-1.67,0-2.97,1.13-2.97,3.32v8.23H37.5V9.95h3.62
		v2.11h0.05c0.51-0.86,1.59-2.48,4.32-2.48c2.81,0,4.99,1.65,4.99,4.81V24.31z"/>
	<path fill="#CB442A" d="M55.46,18.51c0.3,3.48,2.62,4.75,5.59,4.75c3.48,0,4.94-1.89,4.94-4.02c0-6.02-11.85-2.02-11.85-9.66
		c0-2.7,2.24-5.21,6.59-5.21c4.37,0,6.56,2.65,6.53,5.8H65.5c0-2.97-2.29-4.24-4.78-4.24c-3.73,0-5.08,2.29-4.75,4.29
		c0.84,5.02,11.85,1.4,11.85,8.93c0,3.56-2.62,5.67-7.1,5.67c-4.05,0-7.04-2.11-7.04-6.32H55.46z"/>
	<path fill="#CB442A" d="M72.76,29.82h-1.62V10.33h1.62v2.46h0.05c0.95-1.84,3.08-2.83,4.86-2.83c4.51,0,6.32,3.21,6.32,7.34
		c0,3.91-1.97,7.4-6.24,7.4c-1.97,0-3.97-0.92-4.99-2.62V29.82z M77.49,23.23c3.35,0,4.91-2.83,4.78-6.34
		c-0.03-3.51-2.05-5.48-4.78-5.48c-3.05,0-4.72,2.59-4.72,5.97C72.76,20.53,74.54,23.23,77.49,23.23z"/>
	<path fill="#CB442A" d="M93.74,16.16c0.59-0.05,1.59-0.22,2.13-0.46c0.54-0.24,0.59-0.97,0.59-1.46c0-1.65-0.97-2.83-3.48-2.83
		c-2.24,0-3.78,0.73-4.08,3.16h-1.65c0.24-3.29,2.7-4.62,5.75-4.62c2.83,0,5.08,1.11,5.08,4.35v7.61c0,1.27,0.32,1.57,1.7,1.08v1.27
		c-0.24,0.08-0.81,0.27-1.27,0.27c-0.27,0-0.49-0.03-0.73-0.08c-1.08-0.16-1.27-1.11-1.3-2.08c-1.35,1.51-3.19,2.32-5.21,2.32
		c-2.46,0-4.67-1.32-4.67-4.02c0-2.35,1.62-3.78,4.89-4.21L93.74,16.16z M96.47,16.97c-1.38,0.57-2.78,0.67-4.18,0.78
		c-2.46,0.19-3.94,1.08-3.94,2.97c0,1.7,1.49,2.51,3.02,2.51c2.56,0,5.1-1.24,5.1-4.08V16.97z"/>
	<path fill="#CB442A" d="M103.89,24.31h-1.62V10.33h1.62v2.62h0.05c0.89-2.24,2.21-3,4.56-3v1.75c-3.64-0.08-4.62,2.62-4.62,5.75
		V24.31z"/>
	<path fill="#CB442A" d="M110.94,24.31V4.88h1.62v12.09l6.86-6.64h2.21l-5.24,5.05l5.86,8.93h-1.81l-5.24-7.8l-2.65,2.51v5.29
		H110.94z"/>
	<path fill="#797E84" d="M144.42,10.52c-0.76-3.32-2.81-4.59-6.13-4.59c-4.7,0-6.72,4.02-6.72,8.61c0,4.35,1.59,8.72,6.88,8.72
		c3.35,0,5.43-2.27,6.15-5.34h1.92c-0.86,3.75-3.21,6.91-8.42,6.91c-5.99,0-8.37-4.72-8.37-10.23c0-7.42,3.89-10.23,9.04-10.23
		c3.99,0,6.91,2.13,7.53,6.15H144.42z"/>
	<path fill="#797E84" d="M148.82,17.32c0-4.08,2.16-7.37,6.48-7.37c4.37,0,6.48,3.27,6.48,7.37c0,4.43-2.56,7.37-6.48,7.37
		C151.74,24.63,148.82,22.21,148.82,17.32z M155.3,11.41c-3.4,0-4.75,2.89-4.75,5.91c0,3.48,1.65,5.91,4.75,5.91
		c3.4,0,4.75-2.92,4.75-5.91C160.02,14.03,158.73,11.41,155.3,11.41z"/>
	<path fill="#797E84" d="M166.24,24.31h-1.62V10.33h1.62v1.94c1.29-1.38,2.56-2.32,4.51-2.32c1.7,0,3.27,0.54,4.26,2
		c0.68,1,0.7,2.05,0.7,3.21v9.15h-1.62v-9.12c0-2.51-1.03-3.78-3.62-3.78c-2,0-3.37,1.3-3.89,2.73c-0.32,0.89-0.35,1.67-0.35,2.65
		V24.31z"/>
	<path fill="#797E84" d="M179.93,19.94c0.51,2.4,1.75,3.29,4.18,3.29c2.35,0,3.46-1.24,3.46-2.59c0-4.05-8.96-1.19-8.96-6.69
		c0-2.32,1.81-4,4.91-4c3.02,0,4.99,1.24,5.4,4.4h-1.65c-0.3-2.16-1.76-2.94-3.78-2.94c-2.05,0-3.16,0.97-3.16,2.4
		c0,3.81,8.96,1.43,8.96,6.8c0,2.67-2.4,4.08-5.7,4.08s-5.18-2.11-5.32-4.75H179.93z"/>
	<path fill="#797E84" d="M201.06,10.33h1.62v13.98h-1.62v-1.94c-0.86,0.97-2.05,2.32-4.51,2.32c-3.72,0-4.97-2.24-4.97-5.16v-9.2
		h1.62v9.18c0,2.4,1.05,3.72,3.59,3.72c2.67,0,4.26-2.21,4.26-5.29V10.33z"/>
	<path fill="#797E84" d="M206.17,24.31V4.88h1.62v19.44H206.17z"/>
	<path fill="#797E84" d="M216.16,24.36c-0.38,0.08-1.08,0.32-1.86,0.32c-1.59,0-2.48-0.7-2.48-2.78V11.68h-1.97v-1.35h1.97V6.44
		h1.62v3.89h2.62v1.35h-2.62v9.58c0,1.38,0.05,1.97,1.4,1.97c0.43,0,0.89-0.08,1.32-0.19V24.36z"/>
	<path fill="#797E84" d="M218.24,7.28v-2.4h1.78v2.4H218.24z M218.32,24.31V10.33h1.62v13.98H218.32z"/>
	<path fill="#797E84" d="M224.48,24.31h-1.62V10.33h1.62v1.94c1.29-1.38,2.56-2.32,4.51-2.32c1.7,0,3.27,0.54,4.26,2
		c0.68,1,0.7,2.05,0.7,3.21v9.15h-1.62v-9.12c0-2.51-1.03-3.78-3.62-3.78c-2,0-3.37,1.3-3.89,2.73c-0.32,0.89-0.35,1.67-0.35,2.65
		V24.31z"/>
	<path fill="#797E84" d="M247.99,10.33h1.62v12.63c0,3.75-1.24,7.07-6.56,7.07c-4.1,0-5.8-2.35-5.91-4.02h1.73
		c0.48,2.11,2.27,2.56,4.18,2.56c4.43,0,5.02-3.29,4.94-6.5c-1.03,1.7-3.02,2.62-4.99,2.62c-4.26,0-6.23-3.48-6.23-7.4
		c0-4.13,1.81-7.34,6.32-7.34c1.78,0,3.91,1,4.86,2.83h0.05V10.33z M243.27,11.41c-2.72,0-4.75,1.97-4.78,5.48
		c-0.13,3.51,1.43,6.34,4.78,6.34c2.94,0,4.72-2.7,4.72-5.86C247.99,14,246.32,11.41,243.27,11.41z"/>
</g>
<g>
</g>
<g>
</g>
<g>
</g>
<g>
</g>
<g>
</g>
<g>
</g>
</svg>
